<?xml version="1.0" standalone="no"?>
<!DOCTYPE svg PUBLIC "-//W3C//DTD SVG 20010904//EN"
 "http://www.w3.org/TR/2001/REC-SVG-20010904/DTD/svg10.dtd">
 
<svg version="1.0" xmlns="http://www.w3.org/2000/svg"
 width="247.000000pt" height="292.000000pt" viewBox="0 0 247.000000 292.000000"
 preserveAspectRatio="xMidYMid meet">

<g transform="translate(0.000000,292.000000) scale(0.100000,-0.100000)"
fill="#000000" stroke="none">
<path d="M910 2904 c-166 -9 -277 -10 -378 -4 l-144 9 -146 -97 c-145 -95
-146 -97 -110 -100 20 -2 83 1 140 6 56 6 103 9 104 8 0 -1 -12 -710 -20
-1093 l-6 -283 139 0 138 0 6 238 c4 130 10 448 14 705 4 323 10 470 17 473
33 12 323 21 410 13 377 -35 702 -243 849 -545 74 -150 100 -271 100 -464 0
-159 -23 -296 -70 -408 -4 -10 19 -12 107 -10 l112 3 34 65 c84 161 120 340
111 544 -18 412 -220 702 -591 851 -226 91 -415 112 -816 89z"/>
<path d="M1558 1747 l-108 -102 -55 -143 c-30 -78 -55 -144 -55 -147 0 -3 33
-5 74 -5 l74 0 13 38 c25 79 30 81 48 22 l17 -55 127 -3 c90 -2 127 1 127 9 0
9 -99 352 -131 457 -6 17 -14 32 -17 32 -4 -1 -55 -47 -114 -103z"/>
<path d="M60 1271 l-35 -6 0 -98 0 -97 40 0 c22 0 47 5 55 11 12 8 9 9 -12 5
-57 -13 -67 12 -52 128 6 44 8 46 38 46 73 -1 111 -85 65 -144 -14 -18 -16
-24 -5 -20 25 10 46 51 46 92 0 64 -55 97 -140 83z"/>
<path d="M260 1270 c-11 -7 -12 -10 -2 -10 10 0 13 -21 10 -95 -3 -81 -1 -95
13 -95 11 0 15 8 12 28 -2 15 0 62 5 105 7 67 6 77 -7 77 -9 0 -23 -5 -31 -10z"/>
<path d="M455 1271 c-16 -6 -10 -9 25 -13 50 -5 69 0 49 13 -17 11 -47 10 -74
0z"/>
<path d="M610 1270 c-11 -7 -12 -10 -2 -10 11 0 13 -20 10 -95 -2 -79 -1 -95
12 -95 12 0 14 15 12 91 -2 60 1 95 8 105 10 11 9 14 -6 14 -11 0 -26 -5 -34
-10z"/>
<path d="M704 1268 c-3 -5 11 -8 31 -8 l37 0 -4 -95 c-3 -84 -1 -95 14 -95 20
0 33 17 17 22 -7 2 -9 29 -4 86 l8 82 33 0 c18 0 36 4 39 10 4 6 -26 9 -80 7
-48 -1 -89 -5 -91 -9z"/>
<path d="M1130 1270 c-11 -7 -12 -10 -2 -10 11 0 13 -20 10 -95 l-3 -95 47 0
c26 0 50 5 53 10 4 6 -10 10 -34 10 l-41 0 0 83 c0 51 5 88 12 95 9 9 8 12 -7
12 -11 0 -27 -5 -35 -10z"/>
<path d="M1650 1273 c-26 -10 -60 -46 -60 -64 0 -10 19 -31 42 -46 51 -34 59
-58 25 -74 -18 -8 -30 -8 -47 1 -16 8 -25 9 -33 1 -16 -16 32 -31 63 -19 70
26 77 67 20 103 -23 14 -43 32 -47 41 -8 23 17 45 48 42 16 -1 29 2 29 7 1 12
-19 16 -40 8z"/>
<path d="M1820 1273 c-26 -10 -60 -46 -60 -64 0 -10 19 -31 42 -46 51 -34 59
-58 25 -74 -18 -8 -30 -8 -47 1 -16 8 -25 9 -33 1 -16 -16 32 -31 63 -19 70
26 77 67 20 103 -23 14 -43 32 -47 41 -8 23 17 45 48 42 16 -1 29 2 29 7 1 12
-19 16 -40 8z"/>
<path d="M1985 1271 l-50 -6 0 -98 0 -97 45 2 c37 1 39 2 13 5 -32 4 -33 6
-33 49 0 42 1 44 29 44 17 0 33 5 36 10 4 6 -8 10 -29 10 -34 0 -36 2 -36 35
0 34 1 35 39 35 22 0 43 5 46 10 3 6 3 9 -2 8 -4 -1 -30 -4 -58 -7z"/>
<path d="M2084 1268 c-3 -5 11 -8 31 -8 l37 0 -4 -95 c-3 -84 -1 -95 14 -95 9
0 20 5 23 10 3 6 1 10 -5 10 -7 0 -10 27 -8 83 l3 82 35 3 c19 2 39 8 45 13 6
6 -23 8 -79 7 -48 -2 -90 -6 -92 -10z"/>
<path d="M2353 1270 c-13 -5 -23 -11 -23 -12 0 -8 65 0 68 8 4 13 -19 15 -45
4z"/>
<path d="M968 1223 c-11 -27 -31 -72 -43 -100 -19 -41 -21 -53 -10 -53 8 0 12
6 10 13 -8 21 29 57 60 60 27 2 31 -2 39 -35 6 -25 15 -38 26 -38 24 0 32 11
16 24 -7 6 -24 48 -36 94 -13 45 -28 82 -32 82 -5 0 -18 -21 -30 -47z m32 -32
c8 -29 7 -31 -17 -31 -20 0 -24 4 -18 18 4 9 10 25 12 35 7 22 11 18 23 -22z"/>
<path d="M1446 1262 c-2 -4 -19 -43 -36 -87 -18 -44 -36 -86 -42 -92 -8 -10
-6 -13 6 -13 9 0 15 3 14 8 -5 19 16 54 39 63 41 15 52 11 59 -27 7 -38 28
-54 47 -35 8 8 8 11 -1 11 -9 0 -20 30 -58 163 -6 18 -19 23 -28 9z m14 -56
c0 -8 3 -21 6 -30 5 -12 0 -16 -19 -16 -24 0 -25 2 -16 30 11 31 29 41 29 16z"/>
<path d="M398 1243 c-47 -54 -50 -103 -9 -144 31 -30 80 -39 111 -19 11 7 6
10 -21 10 -57 0 -89 31 -89 86 0 31 6 50 20 64 11 11 16 20 12 20 -5 0 -16 -8
-24 -17z"/>
<path d="M2302 1233 c-17 -30 -9 -44 44 -76 38 -23 44 -31 38 -50 -6 -20 -5
-20 10 -8 27 22 15 53 -29 78 -28 15 -42 31 -45 50 -6 28 -6 28 -18 6z"/>
<path d="M505 1170 c-3 -5 -1 -10 4 -10 6 0 11 -17 11 -37 0 -46 18 -33 27 20
5 33 3 37 -15 37 -11 0 -24 -4 -27 -10z"/>
<path d="M2285 1089 c-4 -6 -5 -13 -2 -15 10 -10 68 -7 79 4 8 8 5 9 -10 6
-11 -3 -29 -1 -40 5 -15 8 -23 8 -27 0z"/>
<path d="M346 908 c-14 -140 -54 -260 -91 -275 -8 -3 -15 -9 -15 -14 0 -10
465 -10 605 0 l90 6 32 75 32 75 -82 7 c-45 3 -127 6 -182 7 -55 1 -130 4
-167 7 l-67 7 25 30 c26 31 57 86 68 125 l7 22 -124 0 -124 0 -7 -72z"/>
<path d="M1187 973 c-3 -5 -46 -109 -97 -233 -201 -493 -280 -639 -367 -684
-106 -54 -103 -58 42 -53 150 5 247 28 370 86 l80 38 -154 -5 c-88 -3 -152 -1
-150 4 2 5 29 52 60 104 31 52 94 170 140 261 l83 167 105 6 c162 10 309 26
385 42 38 8 70 13 72 12 1 -2 48 -154 103 -338 76 -252 98 -336 89 -341 -7 -4
-22 -15 -33 -24 -19 -15 -11 -16 115 -12 147 5 192 17 355 100 l69 34 -115 5
c-63 3 -125 10 -139 16 -23 9 -35 43 -145 416 l-119 406 -129 0 c-117 0 -128
-1 -123 -17 2 -10 12 -44 22 -75 10 -32 14 -61 11 -65 -12 -11 -447 -17 -447
-5 0 5 14 42 30 80 17 39 30 73 30 76 0 9 -138 7 -143 -1z"/>
</g>
</svg>
